# xmcd
#
# Track frame offsets:
#	150
#	27215
#	62890
#	93729
#	122200
#	147982
#	169267
#	197412
#	220352
#	233922
#	241497
#	260807
#	280425
#	304127
#
# Disc length: 4393 seconds
#
# Revision: 1
# Processed by: cddbd v1.5.1PL0 Copyright (c) Steve Scherf et al.
# Submitted via: CDex 1.50Beta5
#
DISCID=dd11270e
DTITLE=ryoondo-tea.compilation - Garden Path
DYEAR=1900
DGENRE=
TTITLE0=cinq/spillover
TTITLE1=isi/white paint recordings/bien perde la conscience
TTITLE2=Medicine Quartz/Meta Intuition 1
TTITLE3=Quiet Mode/Doubble happiness(overlevel radio show)
TTITLE4=DJ AGAIN/FLOATATION
TTITLE5=drummatic/paradola
TTITLE6=VIRGO/chronos
TTITLE7=PsysEx/coldsleep
TTITLE8=坪庭/in M
TTITLE9=notyourlife/rain after wind
TTITLE10=miroque/natural sweet mixer
TTITLE11=ひめちこ/あたりまえじゃない世界のひめちこリミックス
TTITLE12=ELECTRIC SABOO/BE FRESH
TTITLE13=ONGAKU/透き通った季節の記憶 リミックス
EXTD=
EXTT0=
EXTT1=
EXTT2=
EXTT3=
EXTT4=
EXTT5=
EXTT6=
EXTT7=
EXTT8=
EXTT9=
EXTT10=
EXTT11=
EXTT12=
EXTT13=
PLAYORDER=
